<svg xmlns="http://www.w3.org/2000/svg" id="Layer_1" viewBox="0 0 754.62 713.82"><defs><style>.cls-1{fill:#ff2d20}</style></defs><path fill="#f9f9f9" d="M397.71 6.47c197.12 0 356.91 156.58 356.91 349.74S594.83 705.95 397.71 705.95 40.8 549.34 40.8 356.21 200.59 6.47 397.71 6.47Z"/><path fill="#ededed" d="M40.8 356.21C40.8 163.05 200.6 6.47 397.71 6.47h-40.8C159.79 6.47 0 163.05 0 356.21s159.79 349.74 356.91 349.74h40.8C200.6 705.95 40.8 549.34 40.8 356.21Z"/><path d="m343.3 252.39 256.13 250.85c11.18 11.18 11.18 29.81 0 40.27l-29.09 29.81c-11.18 11.19-29.82 11.19-40.27 0l-240.5-265.75 53.73-55.18ZM114.92 300c-8-8.38-8.18-20.49-.41-28.47l7.66-8.69c5.59-6.52 17-8.8 24.12-2.49 8.04-.39 15.63-3.83 21.22-9.62 13.26-15.12 3.63-41.31 12.74-50.73l37.16-38.31c17.5-18.12 65.74-75.78 196.5-44.41l-.42 16.36s-64.8.31-110.36 46.58c0 0-16.77 18.74-.2 34.89 4.35 4.87 6.52 7 6.52 7l8.7 8.39-51.87 52.8s-11.6-11.91-15.22-14.7c-8.7-9.12-30.75-8.08-47.52 10-11.9 11.59-13.87 24.43-7.35 28.57 3.62 5 .93 15.63-5.38 21.43l-8.39 9.4c-8.38 8-20.5 8.18-28.47.42l-39-38.52-.03.1Z" class="cls-1"/><path d="M377.31 15c49.02 0 96.56 9.08 141.29 26.97 43.17 17.27 81.92 41.99 115.2 73.46 33.21 31.42 59.28 67.98 77.48 108.67 18.81 42.06 28.34 86.74 28.34 132.8s-9.54 90.74-28.34 132.8c-18.2 40.69-44.26 77.26-77.48 108.67-33.27 31.47-72.03 56.19-115.2 73.46-44.74 17.9-92.27 26.97-141.29 26.97s-96.56-9.08-141.29-26.97c-43.17-17.27-81.92-41.99-115.2-73.46-33.21-31.42-59.28-67.98-77.48-108.67C24.53 447.64 15 402.96 15 356.9s9.54-90.74 28.34-132.8c18.2-40.69 44.26-77.26 77.48-108.67 33.27-31.47 72.03-56.19 115.2-73.46C280.76 24.07 328.29 15 377.31 15m0-15C168.93 0 0 159.79 0 356.91s168.93 356.91 377.31 356.91 377.31-159.79 377.31-356.91S585.69 0 377.31 0Z" class="cls-1"/></svg>