<svg xmlns="http://www.w3.org/2000/svg" id="Layer_1" viewBox="0 0 2233.18 713.82"><defs><style>.cls-1{fill:#ff2d20}</style></defs><path fill="#f9f9f9" d="M1876.27 0H397.71C200.59 0 40.8 159.79 40.8 356.91s159.79 356.91 356.91 356.91h1478.56c197.12 0 356.91-159.79 356.91-356.91S2073.38 0 1876.27 0Z"/><path fill="#ededed" d="M40.8 356.91C40.8 159.79 200.6 0 397.71 0h-40.8C159.79 0 0 159.79 0 356.91s159.79 356.91 356.91 356.91h40.8C200.6 713.82 40.8 554 40.8 356.91Z"/><path d="m408.62 264.39 256.12 250.85c11.18 11.18 11.18 29.81 0 40.27l-29.09 29.81c-11.18 11.19-29.81 11.19-40.27 0L354.89 319.57l53.73-55.18ZM180.24 312c-8-8.38-8.18-20.49-.42-28.47l7.66-8.69c5.59-6.52 17-8.8 24.13-2.49 8.04-.39 15.63-3.83 21.22-9.62 13.25-15.12 3.62-41.31 12.73-50.73l37.17-38.31c17.5-18.12 65.74-75.78 196.49-44.41l-.41 16.36S414 146 368.45 192.23c0 0-16.77 18.74-.21 34.89 4.35 4.87 6.52 7 6.52 7l8.7 8.39-51.87 52.8s-11.59-11.91-15.21-14.7c-8.7-9.12-30.75-8.08-47.52 10-11.86 11.67-13.86 24.51-7.35 28.65 3.62 5 .93 15.63-5.39 21.43l-8.38 9.42c-8.39 8-20.5 8.18-28.47.42l-39-38.52h-.03Zm787.85 280.15h-48.22v-72.32h-55.64v72.32h-48.18v-177.4h48.18v65.74h55.64v-65.74h48.17l.06 177.4Zm102.67-139.91c17.39 0 30.98 4.31 40.77 12.92s14.68 20.89 14.68 36.83v90.16h-32.89l-9.06-18.19h-.98a65.552 65.552 0 0 1-11.95 11.82c-4.2 3.09-8.96 5.36-14.01 6.67a75.003 75.003 0 0 1-19.34 2.13c-7.4.12-14.73-1.54-21.36-4.85a35.465 35.465 0 0 1-14.93-14.68c-3.63-6.56-5.47-14.85-5.53-24.87 0-14.73 5.1-25.66 15.29-32.77 10.19-7.11 24.96-11.12 44.29-12.02l22.93-.72v-1.95c0-6.15-1.51-10.52-4.54-13.11-3.46-2.73-7.8-4.11-12.2-3.88-6.15.11-12.25 1.07-18.14 2.86-6.86 1.97-13.57 4.42-20.09 7.34l-13.72-31.3c8.54-4.25 17.6-7.36 26.95-9.23a165.47 165.47 0 0 1 33.82-3.16Zm8.29 78.51-10.93.48c-8.73.33-14.85 1.85-18.37 4.56-3.55 2.77-5.52 7.1-5.29 11.59 0 4.68 1.26 8.15 3.77 10.37 2.78 2.32 6.33 3.51 9.95 3.33 5.44.1 10.71-1.87 14.74-5.53a18.1 18.1 0 0 0 6.13-14.2v-10.61Zm247.26-78.51c15.66 0 27.63 4.01 35.92 12.02 8.29 8.01 12.43 20.83 12.43 38.46v89.43h-47.45V517.4c0-10.43-1.38-17.7-4.14-21.78-2.76-4.09-6.91-6.13-12.43-6.12-7.68 0-13 3.36-15.96 10.07-2.96 6.71-4.43 16.22-4.43 28.51v64.07h-47.53V517.4c.14-5.41-.45-10.82-1.75-16.08-.8-3.46-2.65-6.6-5.29-8.98a13.67 13.67 0 0 0-8.85-2.85c-5.42 0-9.64 1.63-12.68 4.9-3.04 3.27-5.16 8.06-6.37 14.38-1.33 7.65-1.94 15.41-1.82 23.18v60.19h-47.44V454.66h35.79l6.91 16.98h1.38c2.54-3.83 5.72-7.2 9.41-9.95 4.15-3.07 8.79-5.4 13.72-6.91 5.88-1.78 12-2.64 18.14-2.54 10.13 0 18.46 1.7 24.99 5.1a43.385 43.385 0 0 1 16.02 14.08h1.38a43.633 43.633 0 0 1 16.87-14.2 52.705 52.705 0 0 1 23.21-4.99Zm248.52 0c15.66 0 27.65 4.01 35.99 12.02 8.33 8.01 12.48 20.83 12.43 38.46v89.43h-47.44V517.4c0-10.43-1.38-17.7-4.14-21.78-2.76-4.09-6.91-6.13-12.43-6.12-7.68 0-13 3.36-15.96 10.07-2.96 6.71-4.47 16.22-4.53 28.51v64.07h-47.52V517.4c.14-5.41-.45-10.82-1.75-16.08a17.53 17.53 0 0 0-5.28-8.98 13.706 13.706 0 0 0-8.87-2.85c-5.42 0-9.64 1.63-12.68 4.9-3.04 3.27-5.16 8.06-6.37 14.38-1.33 7.65-1.94 15.41-1.82 23.18v60.19h-47.44V454.66h35.79l6.91 16.98h1.38c2.54-3.83 5.72-7.2 9.41-9.95 4.15-3.07 8.79-5.4 13.72-6.91 5.88-1.78 12-2.64 18.14-2.54 10.13 0 18.46 1.7 25 5.1a43.434 43.434 0 0 1 16.01 14.08h1.46a43.561 43.561 0 0 1 16.87-14.2c7.23-3.4 15.14-5.1 23.12-4.99Zm142.59 0c13.34 0 24.86 2.33 34.54 6.98a50.052 50.052 0 0 1 22.46 20.93c5.25 9.31 7.87 20.96 7.87 34.95v21.12h-84.82c.2 6.75 3.11 13.13 8.07 17.71 4.99 4.6 12.36 6.91 22.1 6.91 7.94.07 15.86-.79 23.59-2.56 7.62-1.86 15.03-4.51 22.1-7.89v34.12a81.965 81.965 0 0 1-21.72 7.64c-9.8 1.79-19.76 2.6-29.73 2.43a89.414 89.414 0 0 1-37.13-7.4 56.834 56.834 0 0 1-25.79-22.93c-6.27-10.36-9.4-23.67-9.39-39.92 0-16.51 2.83-30.08 8.48-40.71a54.24 54.24 0 0 1 23.79-23.66c10.2-5.14 22.06-7.71 35.57-7.71Zm1.7 32.28a19.712 19.712 0 0 0-14.02 5.28c-3.76 3.51-5.96 9.03-6.6 16.58h40.77c-.03-3.81-.86-7.58-2.43-11.05a18.55 18.55 0 0 0-6.73-7.89 19.57 19.57 0 0 0-10.98-2.91Zm173.04-32.28c2.72 0 5.44.19 8.14.54 2.76.37 4.93.68 6.31.91l-4.25 44.76c-1.95-.48-3.94-.83-5.94-1.04-3.39-.32-6.79-.47-10.19-.43-3.21.02-6.42.31-9.59.86-3.42.57-6.7 1.78-9.67 3.58a20.58 20.58 0 0 0-7.46 8.29c-1.93 3.68-2.91 8.64-2.91 14.86v67.59h-47.44V454.67h35.31l7.4 21.96h2.31c2.56-4.59 5.82-8.75 9.67-12.32 3.89-3.66 8.36-6.63 13.23-8.8 4.74-2.15 9.88-3.27 15.09-3.27ZM874.81 316.86h102.28v45.2H816.06V118.34h58.75v198.53Zm226.48 45.2c-2.01-3.68-3.79-9.09-5.36-16.24-10.38 13.06-24.89 19.58-43.52 19.58-17.07 0-31.58-5.16-43.52-15.48-11.94-10.32-17.91-23.29-17.91-38.92 0-19.64 7.25-34.48 21.76-44.53 14.51-10.04 35.6-15.07 63.27-15.07h17.41v-9.59c0-16.71-7.2-25.06-21.59-25.06-13.39 0-20.09 6.62-20.09 19.85h-56.41c0-17.5 7.45-31.71 22.35-42.63 14.9-10.92 33.9-16.39 57-16.39s41.35 5.64 54.74 16.91 20.25 26.73 20.59 46.37v80.18c.22 16.63 2.79 29.35 7.7 38.17v2.85h-56.41Zm-35.32-36.83c7.03 0 12.86-1.51 17.49-4.52 4.63-3.01 7.95-6.42 9.96-10.21v-28.96h-16.4c-19.64 0-29.46 8.82-29.46 26.45 0 5.13 1.73 9.29 5.19 12.47 3.46 3.18 7.87 4.77 13.22 4.77Zm224.81-93.24-18.58-1.34c-17.74 0-29.13 5.58-34.15 16.74v114.66h-56.41V180.94h52.9l1.84 23.27c9.48-17.74 22.71-26.62 39.67-26.62 6.03 0 11.27.67 15.73 2.01l-1 52.39Zm117.34 130.06c-2.01-3.68-3.79-9.09-5.36-16.24-10.38 13.06-24.89 19.58-43.52 19.58-17.07 0-31.58-5.16-43.52-15.48-11.94-10.32-17.91-23.29-17.91-38.92 0-19.64 7.25-34.48 21.76-44.53 14.51-10.04 35.6-15.07 63.27-15.07h17.41v-9.59c0-16.71-7.2-25.06-21.59-25.06-13.39 0-20.09 6.62-20.09 19.85h-56.41c0-17.5 7.45-31.71 22.35-42.63 14.9-10.92 33.9-16.39 57-16.39s41.35 5.64 54.74 16.91 20.25 26.73 20.59 46.37v80.18c.22 16.63 2.79 29.35 7.7 38.17v2.85h-56.41Zm-35.32-36.83c7.03 0 12.86-1.51 17.49-4.52 4.63-3.01 7.95-6.42 9.96-10.21v-28.96h-16.4c-19.64 0-29.46 8.82-29.46 26.45 0 5.13 1.73 9.29 5.19 12.47 3.46 3.18 7.87 4.77 13.22 4.77Zm184.97-30.3 28.62-113.99h59.42l-59.09 181.12h-57.58l-59.09-181.12h59.59l28.12 113.99Zm190.32 70.47c-27.79 0-50.27-8.29-67.46-24.86-17.19-16.57-25.78-38.14-25.78-64.7v-4.69c0-18.52 3.43-34.87 10.29-49.05 6.86-14.17 16.88-25.13 30.05-32.89 13.17-7.76 28.79-11.63 46.87-11.63 25.44 0 45.53 7.9 60.26 23.69 14.73 15.79 22.1 37.8 22.1 66.04v21.93h-112.15c2.01 10.16 6.42 18.14 13.22 23.94 6.81 5.8 15.62 8.7 26.45 8.7 17.85 0 31.8-6.25 41.85-18.75l25.78 30.47c-7.03 9.71-16.99 17.44-29.88 23.18-12.89 5.75-26.76 8.62-41.6 8.62Zm-6.36-144.29c-16.52 0-26.34 10.94-29.46 32.81h56.91v-4.35c.22-9.04-2.07-16.04-6.86-21.01-4.8-4.96-11.66-7.45-20.59-7.45Zm164.88 140.94h-56.58V104.95h56.58v257.11Z" class="cls-1"/><path d="M1876.27 15c46.16 0 90.94 9.04 133.08 26.86 40.71 17.22 77.28 41.88 108.68 73.28s56.06 67.97 73.28 108.68c17.82 42.14 26.86 86.92 26.86 133.08s-9.04 90.94-26.86 133.08c-17.22 40.71-41.88 77.28-73.28 108.68-31.41 31.41-67.97 56.06-108.68 73.28-42.14 17.82-86.92 26.86-133.08 26.86H356.91c-46.16 0-90.94-9.04-133.08-26.87-40.71-17.22-77.28-41.88-108.68-73.29-31.4-31.41-56.06-67.97-73.28-108.69-17.82-42.14-26.86-86.91-26.86-133.07s9.04-90.94 26.86-133.08c17.22-40.71 41.87-77.28 73.28-108.68 31.4-31.4 67.97-56.06 108.68-73.28 42.14-17.82 86.92-26.86 133.08-26.86h1519.36m0-15H356.91C159.79 0 0 159.79 0 356.91s159.79 356.91 356.91 356.91h1519.36c197.12 0 356.91-159.79 356.91-356.91S2073.38 0 1876.27 0Z" class="cls-1"/></svg>
